<?xml version="1.0" standalone="no"?>
<!DOCTYPE svg PUBLIC "-//W3C//DTD SVG 20010904//EN"
 "http://www.w3.org/TR/2001/REC-SVG-20010904/DTD/svg10.dtd">
<svg version="1.0" xmlns="http://www.w3.org/2000/svg"
 width="16.000000pt" height="16.000000pt" viewBox="0 0 16.000000 16.000000"
 preserveAspectRatio="xMidYMid meet">

<g transform="translate(0.000000,16.000000) scale(0.100000,-0.100000)"
fill="#000000" stroke="none">
<path d="M27 132 c-15 -15 -27 -31 -27 -34 0 -4 17 -9 38 -11 l37 -4 -37 -1
c-33 -2 -38 -5 -38 -25 0 -36 30 -57 82 -57 31 0 50 6 62 19 13 15 14 20 4 23
-11 4 -10 8 1 21 12 15 9 17 -28 17 l-41 0 0 40 c0 48 -15 52 -53 12z m30 -17
c0 -6 -6 -12 -12 -12 -6 0 -12 6 -12 12 0 6 6 12 12 12 6 0 12 -6 12 -12z"/>
</g>
</svg>
